<mxfile host="app.diagrams.net" agent="Mozilla/5.0 (Windows NT 10.0; Win64; x64) AppleWebKit/537.36 (KHTML, like Gecko) Chrome/128.0.0.0 Safari/537.36 Edg/128.0.0.0" version="24.7.6">
  <diagram id="C5RBs43oDa-KdzZeNtuy" name="Page-1">
    <mxGraphModel dx="925" dy="507" grid="0" gridSize="10" guides="1" tooltips="1" connect="1" arrows="1" fold="1" page="1" pageScale="1" pageWidth="827" pageHeight="1169" math="0" shadow="0">
      <root>
        <mxCell id="WIyWlLk6GJQsqaUBKTNV-0" />
        <mxCell id="WIyWlLk6GJQsqaUBKTNV-1" parent="WIyWlLk6GJQsqaUBKTNV-0" />
        <mxCell id="VkZv9ohyB9wSwSKShHLD-5" style="edgeStyle=orthogonalEdgeStyle;rounded=0;orthogonalLoop=1;jettySize=auto;html=1;exitX=0.5;exitY=1;exitDx=0;exitDy=0;entryX=0.5;entryY=0;entryDx=0;entryDy=0;" edge="1" parent="WIyWlLk6GJQsqaUBKTNV-1" source="WIyWlLk6GJQsqaUBKTNV-3" target="VkZv9ohyB9wSwSKShHLD-3">
          <mxGeometry relative="1" as="geometry" />
        </mxCell>
        <mxCell id="WIyWlLk6GJQsqaUBKTNV-3" value="&lt;p style=&quot;text-indent: 21pt; font-size: 13px;&quot; class=&quot;MsoNormal&quot;&gt;&lt;span style=&quot;font-family: 微软雅黑;&quot;&gt;Redis服务&lt;/span&gt;&lt;span style=&quot;mso-spacerun:&#39;yes&#39;;font-family:微软雅黑;font-size:12.0000pt;&lt;br/&gt;mso-font-kerning:1.0000pt;&quot;&gt;&lt;/span&gt;&lt;/p&gt;" style="rounded=1;whiteSpace=wrap;html=1;fontSize=12;glass=0;strokeWidth=1;shadow=0;align=left;" parent="WIyWlLk6GJQsqaUBKTNV-1" vertex="1">
          <mxGeometry x="160" y="80" width="120" height="40" as="geometry" />
        </mxCell>
        <mxCell id="VkZv9ohyB9wSwSKShHLD-8" style="edgeStyle=orthogonalEdgeStyle;rounded=0;orthogonalLoop=1;jettySize=auto;html=1;exitX=0.5;exitY=1;exitDx=0;exitDy=0;entryX=0.5;entryY=0;entryDx=0;entryDy=0;" edge="1" parent="WIyWlLk6GJQsqaUBKTNV-1" source="WIyWlLk6GJQsqaUBKTNV-11" target="VkZv9ohyB9wSwSKShHLD-2">
          <mxGeometry relative="1" as="geometry" />
        </mxCell>
        <mxCell id="WIyWlLk6GJQsqaUBKTNV-11" value="&lt;p class=&quot;MsoNormal&quot; style=&quot;font-size: 12px;&quot;&gt;&lt;span style=&quot;font-family: 微软雅黑; font-size: 12px;&quot;&gt;转换服务&lt;/span&gt;&lt;/p&gt;" style="rounded=1;whiteSpace=wrap;html=1;fontSize=12;glass=0;strokeWidth=1;shadow=0;align=center;" parent="WIyWlLk6GJQsqaUBKTNV-1" vertex="1">
          <mxGeometry x="160" y="320" width="120" height="40" as="geometry" />
        </mxCell>
        <mxCell id="VkZv9ohyB9wSwSKShHLD-1" style="edgeStyle=orthogonalEdgeStyle;rounded=0;orthogonalLoop=1;jettySize=auto;html=1;exitX=0.5;exitY=1;exitDx=0;exitDy=0;entryX=0.5;entryY=0;entryDx=0;entryDy=0;" edge="1" parent="WIyWlLk6GJQsqaUBKTNV-1" source="VkZv9ohyB9wSwSKShHLD-0" target="WIyWlLk6GJQsqaUBKTNV-3">
          <mxGeometry relative="1" as="geometry" />
        </mxCell>
        <mxCell id="VkZv9ohyB9wSwSKShHLD-0" value="开始" style="ellipse;whiteSpace=wrap;html=1;fillColor=#dae8fc;strokeColor=#6c8ebf;" vertex="1" parent="WIyWlLk6GJQsqaUBKTNV-1">
          <mxGeometry x="190" y="10" width="60" height="50" as="geometry" />
        </mxCell>
        <mxCell id="VkZv9ohyB9wSwSKShHLD-2" value="结束" style="ellipse;whiteSpace=wrap;html=1;fillColor=#d5e8d4;strokeColor=#82b366;" vertex="1" parent="WIyWlLk6GJQsqaUBKTNV-1">
          <mxGeometry x="190" y="400" width="60" height="50" as="geometry" />
        </mxCell>
        <mxCell id="VkZv9ohyB9wSwSKShHLD-6" style="edgeStyle=orthogonalEdgeStyle;rounded=0;orthogonalLoop=1;jettySize=auto;html=1;exitX=0.5;exitY=1;exitDx=0;exitDy=0;" edge="1" parent="WIyWlLk6GJQsqaUBKTNV-1" source="VkZv9ohyB9wSwSKShHLD-3" target="VkZv9ohyB9wSwSKShHLD-4">
          <mxGeometry relative="1" as="geometry" />
        </mxCell>
        <mxCell id="VkZv9ohyB9wSwSKShHLD-3" value="&lt;p style=&quot;font-size: 12px;&quot; class=&quot;MsoNormal&quot;&gt;&lt;span style=&quot;font-family: 微软雅黑; font-size: 12px;&quot;&gt;应用服务&lt;/span&gt;&lt;/p&gt;" style="rounded=1;whiteSpace=wrap;html=1;fontSize=12;glass=0;strokeWidth=1;shadow=0;align=center;" vertex="1" parent="WIyWlLk6GJQsqaUBKTNV-1">
          <mxGeometry x="160" y="160" width="120" height="40" as="geometry" />
        </mxCell>
        <mxCell id="VkZv9ohyB9wSwSKShHLD-7" style="edgeStyle=orthogonalEdgeStyle;rounded=0;orthogonalLoop=1;jettySize=auto;html=1;exitX=0.5;exitY=1;exitDx=0;exitDy=0;" edge="1" parent="WIyWlLk6GJQsqaUBKTNV-1" source="VkZv9ohyB9wSwSKShHLD-4" target="WIyWlLk6GJQsqaUBKTNV-11">
          <mxGeometry relative="1" as="geometry" />
        </mxCell>
        <mxCell id="VkZv9ohyB9wSwSKShHLD-4" value="&lt;p class=&quot;MsoNormal&quot; style=&quot;text-indent: 21pt; font-size: 12px;&quot;&gt;&lt;span style=&quot;font-family: 微软雅黑; font-size: 12px;&quot;&gt;搜索服务&lt;/span&gt;&lt;span style=&quot;font-family: 微软雅黑; font-size: 12px;&quot;&gt;&lt;/span&gt;&lt;/p&gt;" style="rounded=1;whiteSpace=wrap;html=1;fontSize=12;glass=0;strokeWidth=1;shadow=0;align=center;" vertex="1" parent="WIyWlLk6GJQsqaUBKTNV-1">
          <mxGeometry x="160" y="240" width="120" height="40" as="geometry" />
        </mxCell>
      </root>
    </mxGraphModel>
  </diagram>
</mxfile>
